<svg width="32" height="32" viewBox="0 0 32 32" fill="none" xmlns="http://www.w3.org/2000/svg">
  <!-- Background circle -->
  <circle cx="16" cy="16" r="16" fill="#2563EB"/>
  
  <!-- Hero figure (person) -->
  <circle cx="16" cy="11" r="3" fill="white"/>
  <path d="M11 23V20C11 18.3431 12.3431 17 14 17H18C19.6569 17 21 18.3431 21 20V23" stroke="white" stroke-width="2" stroke-linecap="round"/>
  
  <!-- Shield/protection symbol -->
  <path d="M16 6L19 8V12C19 14 17.5 15.5 16 16C14.5 15.5 13 14 13 12V8L16 6Z" fill="white" fill-opacity="0.8"/>
  
  <!-- Small star for "hero" element -->
  <path d="M23 8L24 10L26 10L24.5 11.5L25 14L23 13L21 14L21.5 11.5L20 10L22 10L23 8Z" fill="#FFD700"/>
</svg>